<?xml version="1.0" encoding="UTF-8" standalone="no"?>
<!-- Created with Inkscape (http://www.inkscape.org/) -->

<svg
   xmlns:dc="http://purl.org/dc/elements/1.1/"
   xmlns:cc="http://creativecommons.org/ns#"
   xmlns:rdf="http://www.w3.org/1999/02/22-rdf-syntax-ns#"
   xmlns:svg="http://www.w3.org/2000/svg"
   xmlns="http://www.w3.org/2000/svg"
   xmlns:sodipodi="http://sodipodi.sourceforge.net/DTD/sodipodi-0.dtd"
   xmlns:inkscape="http://www.inkscape.org/namespaces/inkscape"
   width="128"
   height="128"
   id="svg2"
   version="1.1"
   inkscape:version="0.46+devel r22559"
   sodipodi:docname="reverse.svg"
   inkscape:export-filename="/home/james/programs/racer/svn_root/trunk/racer/data/ui/hud/reverse.png"
   inkscape:export-xdpi="180"
   inkscape:export-ydpi="180">
  <defs
     id="defs4">
    <inkscape:perspective
       sodipodi:type="inkscape:persp3d"
       inkscape:vp_x="0 : 526.18109 : 1"
       inkscape:vp_y="0 : 1000 : 0"
       inkscape:vp_z="744.09448 : 526.18109 : 1"
       inkscape:persp3d-origin="372.04724 : 350.78739 : 1"
       id="perspective10" />
    <filter
       inkscape:collect="always"
       id="filter3675">
      <feGaussianBlur
         inkscape:collect="always"
         stdDeviation="3.25"
         id="feGaussianBlur3677" />
    </filter>
    <filter
       inkscape:collect="always"
       id="filter3683"
       x="-0.1625"
       width="1.325"
       y="-0.13928571"
       height="1.2785714">
      <feGaussianBlur
         inkscape:collect="always"
         stdDeviation="6.5"
         id="feGaussianBlur3685" />
    </filter>
    <clipPath
       clipPathUnits="userSpaceOnUse"
       id="clipPath3693">
      <path
         id="path3695"
         d="m 104,864.36218 c -22.09139,0 -40,17.90861 -40,40 l 0,34 16,0 0,-34 c 0,-13.25483 10.745166,-24 24,-24 13.25483,0 24,10.74517 24,24 l 0,44 -16,0 24,28 24,-28 -16,0 0,-44 c 0,-22.09139 -17.90861,-40 -40,-40 z m -40,76 0,16 16,0 0,-16 -16,0 z m 0,18 0,8 16,0 0,-8 -16,0 z m 0,10 0,4 16,0 0,-4 -16,0 z m 0,6 0,2 16,0 0,-2 -16,0 z"
         style="fill:#ffffff;fill-opacity:1;stroke:none" />
    </clipPath>
    <clipPath
       clipPathUnits="userSpaceOnUse"
       id="clipPath3697">
      <path
         id="path3699"
         d="M 64,8 C 41.90861,8 24,25.90861 24,48 l 0,34 16,0 0,-34 C 40,34.74517 50.745166,24 64,24 77.25483,24 88,34.74517 88,48 l 0,44 -16,0 24,28 24,-28 -16,0 0,-44 C 104,25.90861 86.09139,8 64,8 z m -40,76 0,16 16,0 0,-16 -16,0 z m 0,18 0,8 16,0 0,-8 -16,0 z m 0,10 0,4 16,0 0,-4 -16,0 z m 0,6 0,2 16,0 0,-2 -16,0 z"
         style="fill:#ffffff;fill-opacity:1;stroke:none" />
    </clipPath>
    <filter
       inkscape:collect="always"
       id="filter3724">
      <feGaussianBlur
         inkscape:collect="always"
         stdDeviation="1.59375"
         id="feGaussianBlur3726" />
    </filter>
  </defs>
  <sodipodi:namedview
     id="base"
     pagecolor="#ffffff"
     bordercolor="#666666"
     borderopacity="1.0"
     inkscape:pageopacity="0.0"
     inkscape:pageshadow="2"
     inkscape:zoom="1"
     inkscape:cx="64"
     inkscape:cy="64"
     inkscape:document-units="px"
     inkscape:current-layer="g3621"
     showgrid="false"
     inkscape:window-width="1280"
     inkscape:window-height="953"
     inkscape:window-x="1280"
     inkscape:window-y="25"
     inkscape:window-maximized="1">
    <inkscape:grid
       type="xygrid"
       id="grid2816"
       empspacing="2"
       visible="true"
       enabled="true"
       snapvisiblegridlinesonly="true" />
  </sodipodi:namedview>
  <metadata
     id="metadata7">
    <rdf:RDF>
      <cc:Work
         rdf:about="">
        <dc:format>image/svg+xml</dc:format>
        <dc:type
           rdf:resource="http://purl.org/dc/dcmitype/StillImage" />
        <dc:title></dc:title>
      </cc:Work>
    </rdf:RDF>
  </metadata>
  <g
     inkscape:label="Layer 1"
     inkscape:groupmode="layer"
     id="layer1"
     transform="translate(0,-924.36218)">
    <g
       id="g3621"
       transform="translate(-40,68)">
      <rect
         style="opacity:0.75;fill:#000000;fill-opacity:1;stroke:none"
         id="rect3679"
         width="128"
         height="128"
         x="0"
         y="0"
         transform="translate(40,856.36218)"
         rx="16"
         ry="16" />
      <path
         style="fill:#000000;fill-opacity:1;stroke:none;filter:url(#filter3675)"
         d="m 104,864.36218 c -22.09139,0 -40,17.90861 -40,40 l 0,34 16,0 0,-34 c 0,-13.25483 10.745166,-24 24,-24 13.25483,0 24,10.74517 24,24 l 0,44 -16,0 24,28 24,-28 -16,0 0,-44 c 0,-22.09139 -17.90861,-40 -40,-40 z m -40,76 0,16 16,0 0,-16 -16,0 z m 0,18 0,8 16,0 0,-8 -16,0 z m 0,10 0,4 16,0 0,-4 -16,0 z m 0,6 0,2 16,0 0,-2 -16,0 z"
         id="rect2818" />
      <rect
         ry="16"
         rx="16"
         transform="translate(40,856.36218)"
         y="0"
         x="0"
         height="128"
         width="128"
         id="rect3691"
         style="opacity:1;fill:#ffffff;fill-opacity:1;stroke:none"
         clip-path="url(#clipPath3697)" />
      <path
         style="fill:#ff6600;fill-opacity:1;stroke:none;filter:url(#filter3683)"
         d="m 104,864.36218 c -22.09139,0 -40,17.90861 -40,40 l 0,34 16,0 0,-34 c 0,-13.25483 10.745166,-24 24,-24 13.25483,0 24,10.74517 24,24 l 0,44 -16,0 24,28 24,-28 -16,0 0,-44 c 0,-22.09139 -17.90861,-40 -40,-40 z m -40,76 0,16 16,0 0,-16 -16,0 z m 0,18 0,8 16,0 0,-8 -16,0 z m 0,10 0,4 16,0 0,-4 -16,0 z m 0,6 0,2 16,0 0,-2 -16,0 z"
         id="path3681"
         clip-path="url(#clipPath3693)" />
      <path
         style="fill:#aa4400;fill-opacity:1;stroke:none;filter:url(#filter3724);opacity:0.50000000000000000"
         d="m 104,868.36218 c -22.09139,0 -40,17.90861 -40,40 l 0,4 c 0,-22.09139 17.90861,-40 40,-40 22.09139,0 40,17.90861 40,40 l 0,-4 c 0,-22.09139 -17.90861,-40 -40,-40 z m -38,74 0,2 12,0 0,-2 -12,0 z m 46,6 6.84375,8 9.15625,0 0,-4 -9.15625,0 -3.40625,-4 -3.4375,0 z m 44.5625,0 -3.40625,4 -9.15625,0 0,4 9.15625,0 6.84375,-8 -3.4375,0 z m -90.5625,12 0,2 12,0 0,-2 -12,0 z m 0,8 0,2 12,0 0,-2 -12,0 z"
         id="path3708"
         sodipodi:nodetypes="cccscccccccccccccccccccccccccccccccc" />
    </g>
  </g>
</svg>
